<svg width="28" height="25" viewBox="0 0 28 25" fill="none" xmlns="http://www.w3.org/2000/svg">
<path d="M16.9355 22.8037V15.3418C16.9355 15.0898 16.8594 14.8877 16.707 14.7354C16.5547 14.583 16.3525 14.5068 16.1006 14.5068H11.8906C11.6387 14.5068 11.4336 14.583 11.2754 14.7354C11.123 14.8877 11.0469 15.0898 11.0469 15.3418V22.8037H16.9355ZM3.94531 22.2588V13.1797L13.2969 5.33984C13.5195 5.15234 13.7539 5.05859 14 5.05859C14.2461 5.05273 14.4834 5.14648 14.7119 5.33984L24.0723 13.1885V22.2588C24.0723 23.0381 23.8437 23.6475 23.3867 24.0869C22.9297 24.5264 22.3027 24.7461 21.5059 24.7461H6.50293C5.70605 24.7461 5.0791 24.5264 4.62207 24.0869C4.17089 23.6475 3.94531 23.0381 3.94531 22.2588ZM0.438473 11.9932C0.438473 11.6826 0.570309 11.4189 0.833981 11.2021L12.541 1.37598C12.9922 0.989258 13.4814 0.795898 14.0088 0.795898C14.542 0.795898 15.0342 0.989258 15.4853 1.37598L27.166 11.2021C27.4238 11.4189 27.5527 11.6914 27.5527 12.0195C27.5527 12.3008 27.4561 12.5234 27.2627 12.6875C27.0752 12.8516 26.8379 12.9336 26.5508 12.9336C26.3984 12.9336 26.2549 12.8984 26.1201 12.8281C25.9853 12.7578 25.8564 12.6729 25.7334 12.5732L14.501 3.13379C14.3428 2.99316 14.1787 2.92578 14.0088 2.93164C13.8389 2.93164 13.6777 2.99902 13.5254 3.13379L2.2666 12.5732C2.14355 12.6729 2.01464 12.7578 1.87988 12.8281C1.75097 12.8984 1.61035 12.9336 1.458 12.9336C1.1416 12.9336 0.892574 12.8428 0.710934 12.6611C0.529293 12.4736 0.438473 12.251 0.438473 11.9932ZM21.1631 6.86035V3.91602C21.1631 3.68164 21.2363 3.49707 21.3828 3.3623C21.5293 3.22754 21.7168 3.16016 21.9453 3.16016H23.334C23.5625 3.16016 23.7471 3.22754 23.8877 3.3623C24.0283 3.49707 24.0986 3.68164 24.0986 3.91602V9.33887L21.1631 6.86035Z" fill="black"/>
</svg>
