<svg width="23" height="22" viewBox="0 0 23 22" fill="none" xmlns="http://www.w3.org/2000/svg">
<path d="M0.0800743 7.45508C0.0800743 6.44141 0.244137 5.5127 0.572262 4.66895C0.900387 3.81934 1.35742 3.08691 1.94336 2.47168C2.52929 1.85059 3.21484 1.37305 4 1.03906C4.78515 0.705078 5.63476 0.538086 6.54882 0.538086C7.25781 0.538086 7.91699 0.646484 8.52636 0.863281C9.1416 1.07422 9.68945 1.37305 10.1699 1.75977C10.6562 2.14648 11.0635 2.59473 11.3916 3.10449C11.7256 2.59473 12.1357 2.14648 12.6221 1.75977C13.1084 1.36719 13.6562 1.06543 14.2656 0.854492C14.875 0.643555 15.5342 0.538086 16.2432 0.538086C17.1572 0.538086 18.0068 0.705078 18.792 1.03906C19.5771 1.37305 20.2627 1.85059 20.8486 2.47168C21.4404 3.08691 21.8975 3.81934 22.2197 4.66895C22.5478 5.5127 22.7119 6.44141 22.7119 7.45508C22.7119 8.65625 22.4658 9.84863 21.9736 11.0322C21.4873 12.2158 20.7871 13.3789 19.873 14.5215C18.9648 15.6641 17.875 16.7803 16.6035 17.8701C15.332 18.96 13.9141 20.0146 12.3496 21.0342C12.1914 21.1338 12.0244 21.2217 11.8486 21.2979C11.6787 21.3799 11.5264 21.4209 11.3916 21.4209C11.2627 21.4209 11.1103 21.3799 10.9346 21.2979C10.7588 21.2217 10.5977 21.1338 10.4512 21.0342C8.88086 20.0146 7.45996 18.96 6.18847 17.8701C4.91699 16.7803 3.82421 15.6641 2.91015 14.5215C2.00195 13.3789 1.30175 12.2158 0.809566 11.0322C0.323238 9.84863 0.0800743 8.65625 0.0800743 7.45508ZM2.0664 7.44629C2.0664 8.46582 2.30957 9.49707 2.79589 10.54C3.28222 11.583 3.94726 12.6143 4.79101 13.6338C5.64062 14.6475 6.61328 15.626 7.70898 16.5693C8.81054 17.5127 9.97363 18.3945 11.1982 19.2148C11.2978 19.2852 11.3623 19.3203 11.3916 19.3203C11.4209 19.3203 11.4883 19.2852 11.5937 19.2148C12.8184 18.3945 13.9785 17.5127 15.0742 16.5693C16.1758 15.626 17.1484 14.6475 17.9922 13.6338C18.8418 12.6143 19.5068 11.583 19.9873 10.54C20.4736 9.49707 20.7168 8.46582 20.7168 7.44629C20.7168 6.46191 20.5176 5.60059 20.1191 4.8623C19.7266 4.11816 19.1846 3.53809 18.4932 3.12207C17.8018 2.7002 17.0195 2.48926 16.1465 2.48926C15.4609 2.48926 14.8662 2.6123 14.3623 2.8584C13.8643 3.10449 13.4336 3.41211 13.0703 3.78125C12.7129 4.15039 12.4053 4.52832 12.1475 4.91504C11.9951 5.12012 11.8662 5.2666 11.7607 5.35449C11.6553 5.43652 11.5322 5.47754 11.3916 5.47754C11.2568 5.47754 11.1338 5.43652 11.0225 5.35449C10.9111 5.2666 10.7881 5.12012 10.6533 4.91504C10.4014 4.52246 10.0937 4.1416 9.73046 3.77246C9.37304 3.40332 8.93945 3.09863 8.42968 2.8584C7.92578 2.6123 7.33105 2.48926 6.6455 2.48926C5.7666 2.48926 4.98437 2.7002 4.29882 3.12207C3.61328 3.53809 3.06836 4.11816 2.66406 4.8623C2.26562 5.60059 2.0664 6.46191 2.0664 7.44629Z" fill="#999999"/>
</svg>
