<svg width="24" height="24" viewBox="0 0 24 24" fill="none" xmlns="http://www.w3.org/2000/svg">
<path d="M11.791 23.2471C10.5195 23.2471 9.30664 23.0479 8.15234 22.6494C6.99804 22.2568 5.9375 21.7031 4.9707 20.9883C4.0039 20.2793 3.16308 19.4414 2.44824 18.4746C1.73339 17.5078 1.17968 16.4473 0.787106 15.293C0.394527 14.1328 0.198238 12.9199 0.198238 11.6543C0.198238 10.3828 0.394527 9.16992 0.787106 8.01562C1.17968 6.86133 1.73339 5.80078 2.44824 4.83398C3.16308 3.86719 4.00097 3.02637 4.96191 2.31152C5.92871 1.59668 6.98925 1.04297 8.14355 0.650391C9.29785 0.251953 10.5107 0.0527344 11.7822 0.0527344C13.0537 0.0527344 14.2666 0.251953 15.4209 0.650391C16.5811 1.04297 17.6445 1.59668 18.6113 2.31152C19.5781 3.02637 20.4189 3.86719 21.1338 4.83398C21.8486 5.80078 22.4023 6.86133 22.7949 8.01562C23.1934 9.16992 23.3926 10.3828 23.3926 11.6543C23.3926 12.9199 23.1934 14.1328 22.7949 15.293C22.4023 16.4473 21.8486 17.5078 21.1338 18.4746C20.4189 19.4414 19.5781 20.2793 18.6113 20.9883C17.6445 21.7031 16.584 22.2568 15.4297 22.6494C14.2754 23.0479 13.0625 23.2471 11.791 23.2471ZM11.791 21.2344C12.8516 21.2344 13.8623 21.0732 14.8232 20.751C15.7842 20.4287 16.6631 19.9746 17.46 19.3887C18.2568 18.8086 18.9482 18.1201 19.5342 17.3232C20.1201 16.5205 20.5713 15.6416 20.8877 14.6865C21.21 13.7256 21.3711 12.7148 21.3711 11.6543C21.3711 10.5938 21.21 9.58301 20.8877 8.62207C20.5713 7.66113 20.1172 6.78223 19.5254 5.98535C18.9394 5.18848 18.248 4.49707 17.4512 3.91113C16.6543 3.3252 15.7754 2.87402 14.8144 2.55762C13.8535 2.23535 12.8428 2.07422 11.7822 2.07422C10.7217 2.07422 9.71093 2.23535 8.75 2.55762C7.79492 2.87402 6.91894 3.3252 6.12207 3.91113C5.32519 4.49707 4.63379 5.18848 4.04785 5.98535C3.46777 6.78223 3.0166 7.66113 2.69433 8.62207C2.37793 9.58301 2.21972 10.5938 2.21972 11.6543C2.21972 12.7148 2.37793 13.7256 2.69433 14.6865C3.0166 15.6416 3.4707 16.5205 4.05664 17.3232C4.64257 18.1201 5.33398 18.8086 6.13086 19.3887C6.92773 19.9746 7.80371 20.4287 8.75879 20.751C9.71972 21.0732 10.7305 21.2344 11.791 21.2344ZM19.3672 19.0986C18.6465 19.7607 17.8467 20.3232 16.9678 20.7861C16.0889 21.249 15.1982 21.6006 14.2959 21.8408C13.3994 22.0869 12.5644 22.21 11.791 22.21C11.0234 22.21 10.1855 22.0869 9.27734 21.8408C8.375 21.5947 7.47851 21.2402 6.58789 20.7773C5.70312 20.3203 4.91211 19.7607 4.21484 19.0986L4.25 18.9229C4.43164 18.5127 4.73925 18.1084 5.17285 17.71C5.60644 17.3057 6.15136 16.9395 6.80761 16.6113C7.46386 16.2832 8.21093 16.0195 9.04882 15.8203C9.88671 15.6211 10.8008 15.5215 11.791 15.5215C12.7812 15.5215 13.6953 15.6211 14.5332 15.8203C15.3711 16.0195 16.1152 16.2861 16.7656 16.6201C17.4219 16.9482 17.9668 17.3145 18.4004 17.7188C18.8398 18.123 19.1504 18.5303 19.332 18.9404L19.3672 19.0986ZM11.791 13.6494C11.0586 13.6436 10.3965 13.4531 9.80468 13.0781C9.21875 12.6973 8.75293 12.1846 8.40722 11.54C8.06738 10.8955 7.89746 10.1689 7.89746 9.36035C7.8916 8.59863 8.06152 7.90137 8.40722 7.26855C8.75293 6.62988 9.22168 6.12012 9.81347 5.73926C10.4053 5.3584 11.0644 5.16797 11.791 5.16797C12.5117 5.16797 13.165 5.3584 13.751 5.73926C14.3428 6.12012 14.8115 6.62988 15.1572 7.26855C15.5088 7.90137 15.6846 8.59863 15.6846 9.36035C15.6846 10.1689 15.5117 10.8984 15.166 11.5488C14.8203 12.1934 14.3516 12.7061 13.7598 13.0869C13.1738 13.4678 12.5176 13.6553 11.791 13.6494Z" fill="#999999"/>
</svg>
